<?xml version="1.0" standalone="no"?>
<!DOCTYPE svg PUBLIC "-//W3C//DTD SVG 20010904//EN"
 "http://www.w3.org/TR/2001/REC-SVG-20010904/DTD/svg10.dtd">
<svg version="1.0" xmlns="http://www.w3.org/2000/svg"
 width="400.000000pt" height="250.000000pt" viewBox="0 0 400.000000 250.000000"
 preserveAspectRatio="xMidYMid meet">

<g transform="translate(0.000000,250.000000) scale(0.100000,-0.100000)"
fill="#000000" stroke="none">
<path d="M2721 2478 c-13 -36 -53 -210 -48 -214 5 -6 481 -103 485 -99 1 1
-59 77 -135 169 l-137 166 -78 0 c-72 0 -79 -2 -87 -22z"/>
<path d="M3157 2388 c2 -62 6 -141 9 -175 l5 -61 225 -217 c124 -120 223 -220
220 -222 -2 -2 -104 10 -226 27 l-221 32 -200 -46 -200 -47 -167 -123 c-92
-67 -214 -157 -272 -200 l-105 -79 -5 -261 -5 -261 -95 -7 c-52 -4 -144 -11
-205 -16 -60 -5 -112 -8 -115 -5 -3 3 -6 44 -8 91 -7 210 -23 504 -32 582 -5
47 -14 135 -20 195 -6 61 -13 120 -15 133 l-5 22 -220 0 -220 0 -2 -510 -3
-510 -245 256 -245 256 -6 -199 c-4 -109 -7 -211 -8 -228 -1 -28 -15 -16 -214
183 -117 116 -215 212 -218 212 -3 0 -9 -24 -12 -52 -3 -29 -15 -134 -27 -232
l-21 -179 -140 -146 -139 -146 0 -227 0 -228 2000 0 2000 0 0 1252 0 1252
-133 -139 -134 -140 -13 138 -14 137 -276 0 -275 0 2 -112z"/>
<path d="M2535 2249 c-44 -4 -127 -12 -183 -18 -57 -5 -106 -11 -108 -13 -2
-2 -10 -96 -19 -209 -8 -112 -18 -220 -21 -239 -7 -42 -31 -66 211 210 103
118 202 230 218 248 l31 32 -25 -1 c-13 -1 -60 -5 -104 -10z"/>
</g>
</svg>
